<svg width="1024" height="1024" viewBox="0 0 1024 1024" fill="none" xmlns="http://www.w3.org/2000/svg">
<rect width="1024" height="1024" rx="224" fill="#0B1020"/>
<rect x="65" y="65" width="894" height="894" rx="159" stroke="#7CFFB2" stroke-width="10"/>
<path d="M391.04 648.4V600.88C367.04 598.96 347.96 591.28 333.8 577.84C319.88 564.4 312.92 547.12 312.92 526H366.92C366.92 532.72 369.08 538.48 373.4 543.28C377.72 548.08 383.6 551.44 391.04 553.36V490.36L387.08 489.28C364.76 484 347.36 474.28 334.88 460.12C322.64 445.72 316.52 428.2 316.52 407.56C316.52 386.2 323.12 368.8 336.32 355.36C349.76 341.92 368 334.24 391.04 332.32V284.8H414.44V331.96C437.96 333.88 456.56 341.44 470.24 354.64C483.92 367.6 490.76 384.52 490.76 405.4H436.76C436.76 398.68 434.84 393.16 431 388.84C427.16 384.28 421.64 381.16 414.44 379.48V440.32L424.16 442.48C447.44 447.76 465.08 457.36 477.08 471.28C489.08 484.96 495.08 502.48 495.08 523.84C495.08 545.68 487.76 563.56 473.12 577.48C458.72 591.4 439.16 599.32 414.44 601.24V648.4H391.04ZM414.44 554.08C422.84 552.88 429.32 549.88 433.88 545.08C438.68 540.28 441.08 534.04 441.08 526.36C441.08 516.04 436.76 507.76 428.12 501.52C419.72 495.28 408.08 492.64 393.2 493.6L414.44 471.28V554.08ZM391.04 458.68V379.48C384.32 381.16 379.16 384.16 375.56 388.48C372.2 392.8 370.52 398.44 370.52 405.4C370.52 415 374.12 422.92 381.32 429.16C388.52 435.16 398.24 437.8 410.48 437.08L391.04 458.68ZM533.459 657.4V607H706.259V657.4H533.459Z" fill="#7CFFB2"/>
</svg>
