<svg width="2100" height="900" viewBox="0 0 2100 900" fill="none" xmlns="http://www.w3.org/2000/svg">
<path d="M459 310L571.583 478.75H346.417L459 310Z" stroke="#7CFFB2" stroke-width="8" stroke-linejoin="round"/>
<circle cx="459" cy="310" r="40.5" fill="#0B1020" stroke="#7CFFB2" stroke-width="11"/>
<circle cx="459" cy="310" r="9" fill="#E0B265"/>
<circle cx="329" cy="535" r="40.5" fill="#0B1020" stroke="#7CFFB2" stroke-width="11"/>
<circle cx="329" cy="535" r="9" fill="#7CFFB2"/>
<circle cx="589" cy="535" r="40.5" fill="#0B1020" stroke="#7CFFB2" stroke-width="11"/>
<circle cx="589" cy="535" r="9" fill="#7CFFB2"/>
<path d="M837.48 489.6C829.693 489.6 822.867 488.16 817 485.28C811.133 482.293 806.6 478.187 803.4 472.96C800.2 467.627 798.6 461.44 798.6 454.4V433.6C798.6 426.453 800.2 420.267 803.4 415.04C806.6 409.813 811.133 405.76 817 402.88C822.867 399.893 829.693 398.4 837.48 398.4C849.107 398.4 858.387 401.333 865.32 407.2C872.253 413.067 875.933 421.067 876.36 431.2H852.36C852.04 427.467 850.547 424.533 847.88 422.4C845.32 420.267 841.853 419.2 837.48 419.2C832.68 419.2 829 420.427 826.44 422.88C823.88 425.333 822.6 428.907 822.6 433.6V454.4C822.6 458.987 823.88 462.56 826.44 465.12C829 467.573 832.68 468.8 837.48 468.8C841.853 468.8 845.32 467.787 847.88 465.76C850.547 463.627 852.04 460.64 852.36 456.8H876.36C875.933 466.933 872.253 474.933 865.32 480.8C858.387 486.667 849.107 489.6 837.48 489.6ZM894.858 488V400H917.258V416.8H923.338L916.458 427.04C916.458 417.547 918.644 410.4 923.018 405.6C927.391 400.8 933.791 398.4 942.218 398.4C951.924 398.4 959.444 401.333 964.778 407.2C970.218 413.067 972.938 421.333 972.938 432V439.2H947.338V433.6C947.338 428.8 946.004 425.067 943.338 422.4C940.778 419.733 937.311 418.4 932.938 418.4C928.351 418.4 924.831 419.733 922.378 422.4C920.031 425.067 918.858 428.8 918.858 433.6V488H894.858ZM1011.12 489.6C1002.26 489.6 995.222 487.2 989.995 482.4C984.875 477.6 982.315 471.093 982.315 462.88C982.315 454.027 985.355 447.253 991.435 442.56C997.622 437.76 1006.48 435.36 1018 435.36H1036.24V428.8C1036.24 425.387 1035.01 422.667 1032.56 420.64C1030.21 418.613 1027.01 417.6 1022.96 417.6C1019.22 417.6 1016.13 418.453 1013.68 420.16C1011.22 421.867 1009.73 424.213 1009.2 427.2H985.995C986.955 418.347 990.795 411.36 997.515 406.24C1004.34 401.013 1013.09 398.4 1023.76 398.4C1034.96 398.4 1043.81 401.173 1050.32 406.72C1056.93 412.16 1060.24 419.52 1060.24 428.8V488H1037.04V473.6H1033.2L1037.2 468C1037.2 474.613 1034.8 479.893 1030 483.84C1025.3 487.68 1019.01 489.6 1011.12 489.6ZM1020.08 472C1024.77 472 1028.61 470.773 1031.6 468.32C1034.69 465.76 1036.24 462.453 1036.24 458.4V448.96H1018.48C1014.85 448.96 1011.92 450.027 1009.68 452.16C1007.44 454.187 1006.32 456.907 1006.32 460.32C1006.32 463.947 1007.54 466.827 1010 468.96C1012.45 470.987 1015.81 472 1020.08 472ZM1111.53 489.6C1104.28 489.6 1097.93 488.48 1092.49 486.24C1087.05 483.893 1082.79 480.693 1079.69 476.64C1076.71 472.587 1075.21 467.84 1075.21 462.4H1099.21C1099.21 464.96 1100.33 467.04 1102.57 468.64C1104.92 470.133 1107.91 470.88 1111.53 470.88H1118.57C1122.95 470.88 1126.25 470.08 1128.49 468.48C1130.84 466.88 1132.01 464.64 1132.01 461.76C1132.01 459.093 1131 457.067 1128.97 455.68C1126.95 454.187 1123.8 453.173 1119.53 452.64L1109.29 451.36C1098.31 449.973 1090.31 447.307 1085.29 443.36C1080.28 439.413 1077.77 433.387 1077.77 425.28C1077.77 416.747 1080.71 410.133 1086.57 405.44C1092.44 400.747 1101.03 398.4 1112.33 398.4H1118.41C1129.19 398.4 1137.77 400.747 1144.17 405.44C1150.57 410.133 1153.77 416.427 1153.77 424.32H1129.77C1129.77 422.187 1128.71 420.48 1126.57 419.2C1124.55 417.813 1121.83 417.12 1118.41 417.12H1112.33C1108.39 417.12 1105.51 417.813 1103.69 419.2C1101.88 420.48 1100.97 422.453 1100.97 425.12C1100.97 427.573 1101.77 429.44 1103.37 430.72C1105.08 432 1107.75 432.907 1111.37 433.44L1122.41 434.88C1133.51 436.267 1141.72 439.04 1147.05 443.2C1152.49 447.36 1155.21 453.547 1155.21 461.76C1155.21 470.72 1152.12 477.6 1145.93 482.4C1139.75 487.2 1130.63 489.6 1118.57 489.6H1111.53ZM1170.51 488V371.2H1194.51V400L1193.71 416.8H1200.75L1193.71 422.4C1193.71 414.933 1195.84 409.067 1200.11 404.8C1204.38 400.533 1210.14 398.4 1217.39 398.4C1225.92 398.4 1232.75 401.387 1237.87 407.36C1243.1 413.333 1245.71 421.28 1245.71 431.2V488H1221.71V433.6C1221.71 429.013 1220.48 425.493 1218.03 423.04C1215.68 420.48 1212.32 419.2 1207.95 419.2C1203.68 419.2 1200.38 420.48 1198.03 423.04C1195.68 425.493 1194.51 429.013 1194.51 433.6V488H1170.51ZM1275.09 446.4V424H1326.29V446.4H1275.09ZM1407.82 488C1401.64 488 1396.2 486.72 1391.5 484.16C1386.81 481.493 1383.13 477.813 1380.46 473.12C1377.9 468.427 1376.62 462.987 1376.62 456.8V392.8H1349.42V371.2H1400.62V456.8C1400.62 459.68 1401.48 462.027 1403.18 463.84C1405 465.547 1407.34 466.4 1410.22 466.4H1435.82V488H1407.82ZM1486.16 489.6C1478.38 489.6 1471.6 488.16 1465.84 485.28C1460.08 482.293 1455.6 478.187 1452.4 472.96C1449.31 467.627 1447.76 461.44 1447.76 454.4V433.6C1447.76 426.56 1449.31 420.427 1452.4 415.2C1455.6 409.867 1460.08 405.76 1465.84 402.88C1471.6 399.893 1478.38 398.4 1486.16 398.4C1494.06 398.4 1500.83 399.893 1506.48 402.88C1512.24 405.76 1516.67 409.867 1519.76 415.2C1522.96 420.427 1524.56 426.56 1524.56 433.6V454.4C1524.56 461.44 1522.96 467.627 1519.76 472.96C1516.67 478.187 1512.24 482.293 1506.48 485.28C1500.83 488.16 1494.06 489.6 1486.16 489.6ZM1486.16 468.8C1490.86 468.8 1494.43 467.573 1496.88 465.12C1499.34 462.56 1500.56 458.987 1500.56 454.4V433.6C1500.56 428.907 1499.34 425.333 1496.88 422.88C1494.43 420.427 1490.86 419.2 1486.16 419.2C1481.58 419.2 1478 420.427 1475.44 422.88C1472.99 425.333 1471.76 428.907 1471.76 433.6V454.4C1471.76 458.987 1472.99 462.56 1475.44 465.12C1478 467.573 1481.58 468.8 1486.16 468.8ZM1578.9 489.6C1571.11 489.6 1564.34 488.16 1558.58 485.28C1552.82 482.293 1548.34 478.187 1545.14 472.96C1542.05 467.627 1540.5 461.44 1540.5 454.4V433.6C1540.5 426.56 1542.05 420.427 1545.14 415.2C1548.34 409.867 1552.82 405.76 1558.58 402.88C1564.34 399.893 1571.11 398.4 1578.9 398.4C1586.79 398.4 1593.57 399.893 1599.22 402.88C1604.98 405.76 1609.41 409.867 1612.5 415.2C1615.7 420.427 1617.3 426.56 1617.3 433.6V454.4C1617.3 461.44 1615.7 467.627 1612.5 472.96C1609.41 478.187 1604.98 482.293 1599.22 485.28C1593.57 488.16 1586.79 489.6 1578.9 489.6ZM1578.9 468.8C1583.59 468.8 1587.17 467.573 1589.62 465.12C1592.07 462.56 1593.3 458.987 1593.3 454.4V433.6C1593.3 428.907 1592.07 425.333 1589.62 422.88C1587.17 420.427 1583.59 419.2 1578.9 419.2C1574.31 419.2 1570.74 420.427 1568.18 422.88C1565.73 425.333 1564.5 428.907 1564.5 433.6V454.4C1564.5 458.987 1565.73 462.56 1568.18 465.12C1570.74 467.573 1574.31 468.8 1578.9 468.8ZM1634.2 516.8V400H1657.4V416.8H1663L1657.4 422.4C1657.4 414.827 1659.48 408.96 1663.64 404.8C1667.8 400.533 1673.5 398.4 1680.76 398.4C1689.61 398.4 1696.7 401.547 1702.04 407.84C1707.37 414.027 1710.04 422.347 1710.04 432.8V455.2C1710.04 462.133 1708.81 468.213 1706.36 473.44C1704.01 478.56 1700.65 482.56 1696.28 485.44C1691.9 488.213 1686.73 489.6 1680.76 489.6C1673.5 489.6 1667.8 487.52 1663.64 483.36C1659.48 479.093 1657.4 473.173 1657.4 465.6L1663 471.2H1657.4L1658.2 492.8V516.8H1634.2ZM1672.12 468.8C1676.6 468.8 1680.01 467.573 1682.36 465.12C1684.81 462.56 1686.04 458.987 1686.04 454.4V433.6C1686.04 428.907 1684.81 425.333 1682.36 422.88C1680.01 420.427 1676.6 419.2 1672.12 419.2C1667.74 419.2 1664.33 420.48 1661.88 423.04C1659.42 425.493 1658.2 429.013 1658.2 433.6V454.4C1658.2 458.987 1659.42 462.56 1661.88 465.12C1664.33 467.573 1667.74 468.8 1672.12 468.8Z" fill="#F1EEE6"/>
<path d="M1731.6 514.4V492H1808.4V514.4H1731.6Z" fill="#7CFFB2"/>
<path d="M795.992 572V569.552H802.656V555.748H796.842V553.3H805.376V569.552H811.7V572H795.992ZM803.71 549.866C803.007 549.866 802.441 549.685 802.01 549.322C801.602 548.959 801.398 548.461 801.398 547.826C801.398 547.169 801.602 546.647 802.01 546.262C802.441 545.877 803.007 545.684 803.71 545.684C804.413 545.684 804.968 545.877 805.376 546.262C805.807 546.647 806.022 547.169 806.022 547.826C806.022 548.438 805.807 548.937 805.376 549.322C804.968 549.685 804.413 549.866 803.71 549.866ZM817.365 572V553.3H820.051V556.768H820.731L819.983 557.754C819.983 556.258 820.436 555.091 821.343 554.252C822.272 553.391 823.53 552.96 825.117 552.96C826.975 552.96 828.46 553.549 829.571 554.728C830.681 555.884 831.237 557.459 831.237 559.454V572H828.551V559.76C828.551 558.332 828.177 557.233 827.429 556.462C826.681 555.691 825.661 555.306 824.369 555.306C823.031 555.306 821.977 555.714 821.207 556.53C820.436 557.346 820.051 558.502 820.051 559.998V572H817.365ZM842.783 572V557.618H837.275V555.17H842.783V551.804C842.783 550.376 843.225 549.254 844.109 548.438C845.016 547.599 846.251 547.18 847.815 547.18H853.221V549.628H847.815C847.067 549.628 846.489 549.821 846.081 550.206C845.696 550.569 845.503 551.101 845.503 551.804V555.17H853.221V557.618H845.503V572H842.783ZM860.11 572V553.3H862.762V556.768H863.408L862.456 558.91C862.479 557.006 862.943 555.544 863.85 554.524C864.757 553.481 866.06 552.96 867.76 552.96C869.732 552.96 871.296 553.583 872.452 554.83C873.631 556.054 874.22 557.709 874.22 559.794V560.916H871.466V559.998C871.466 558.479 871.092 557.312 870.344 556.496C869.596 555.657 868.531 555.238 867.148 555.238C865.811 555.238 864.757 555.657 863.986 556.496C863.215 557.335 862.83 558.502 862.83 559.998V572H860.11ZM886.005 572.34C884.033 572.34 882.48 571.841 881.347 570.844C880.214 569.824 879.647 568.453 879.647 566.73C879.647 565.03 880.202 563.693 881.313 562.718C882.424 561.721 883.92 561.222 885.801 561.222H891.751V559.25C891.751 558.003 891.388 557.04 890.663 556.36C889.938 555.68 888.906 555.34 887.569 555.34C886.39 555.34 885.404 555.601 884.611 556.122C883.84 556.643 883.398 557.346 883.285 558.23H880.565C880.792 556.621 881.54 555.34 882.809 554.388C884.101 553.436 885.71 552.96 887.637 552.96C889.722 552.96 891.377 553.527 892.601 554.66C893.825 555.771 894.437 557.278 894.437 559.182V572H891.785V568.362H891.343L891.853 567.818C891.853 569.201 891.32 570.3 890.255 571.116C889.19 571.932 887.773 572.34 886.005 572.34ZM886.651 570.164C888.147 570.164 889.371 569.79 890.323 569.042C891.275 568.294 891.751 567.319 891.751 566.118V563.296H885.835C884.77 563.296 883.92 563.591 883.285 564.18C882.65 564.769 882.333 565.574 882.333 566.594C882.333 567.682 882.718 568.555 883.489 569.212C884.26 569.847 885.314 570.164 886.651 570.164ZM907.854 572.306C906.63 572.306 905.553 572.102 904.624 571.694C903.694 571.286 902.958 570.719 902.414 569.994C901.87 569.246 901.541 568.385 901.428 567.41H904.114C904.272 568.158 904.669 568.759 905.304 569.212C905.961 569.665 906.811 569.892 907.854 569.892H909.52C910.721 569.892 911.628 569.631 912.24 569.11C912.874 568.566 913.192 567.852 913.192 566.968C913.192 566.129 912.92 565.449 912.376 564.928C911.832 564.407 911.05 564.067 910.03 563.908L907.208 563.466C905.44 563.171 904.102 562.605 903.196 561.766C902.312 560.927 901.87 559.749 901.87 558.23C901.87 556.575 902.402 555.295 903.468 554.388C904.556 553.459 906.12 552.994 908.16 552.994H909.486C911.254 552.994 912.67 553.413 913.736 554.252C914.824 555.091 915.481 556.224 915.708 557.652H912.988C912.852 556.972 912.478 556.428 911.866 556.02C911.276 555.612 910.483 555.408 909.486 555.408H908.16C906.958 555.408 906.063 555.657 905.474 556.156C904.884 556.632 904.59 557.323 904.59 558.23C904.59 559.046 904.839 559.669 905.338 560.1C905.836 560.508 906.596 560.791 907.616 560.95L910.404 561.392C912.262 561.687 913.645 562.276 914.552 563.16C915.458 564.021 915.912 565.234 915.912 566.798C915.912 568.498 915.368 569.847 914.28 570.844C913.192 571.819 911.605 572.306 909.52 572.306H907.854ZM931.64 572C930.076 572 928.864 571.592 928.002 570.776C927.141 569.937 926.71 568.759 926.71 567.24V555.748H921.406V553.3H926.71V548.03H929.43V553.3H936.944V555.748H929.43V567.24C929.43 568.781 930.167 569.552 931.64 569.552H936.604V572H931.64ZM944.377 572V553.3H947.029V556.768H947.675L946.723 558.91C946.746 557.006 947.21 555.544 948.117 554.524C949.024 553.481 950.327 552.96 952.027 552.96C953.999 552.96 955.563 553.583 956.719 554.83C957.898 556.054 958.487 557.709 958.487 559.794V560.916H955.733V559.998C955.733 558.479 955.359 557.312 954.611 556.496C953.863 555.657 952.798 555.238 951.415 555.238C950.078 555.238 949.024 555.657 948.253 556.496C947.482 557.335 947.097 558.502 947.097 559.998V572H944.377ZM971.7 572.34C969.592 572.34 967.903 571.705 966.634 570.436C965.387 569.167 964.764 567.444 964.764 565.268V553.3H967.45V565.268C967.45 566.741 967.824 567.897 968.572 568.736C969.342 569.552 970.385 569.96 971.7 569.96C973.037 569.96 974.091 569.552 974.862 568.736C975.632 567.897 976.018 566.741 976.018 565.268V553.3H978.704V565.268C978.704 567.444 978.069 569.167 976.8 570.436C975.53 571.705 973.83 572.34 971.7 572.34ZM992.902 572.34C991.452 572.34 990.182 572.057 989.094 571.49C988.006 570.923 987.156 570.119 986.544 569.076C985.955 568.011 985.66 566.753 985.66 565.302V559.998C985.66 558.547 985.955 557.301 986.544 556.258C987.156 555.193 988.006 554.377 989.094 553.81C990.182 553.243 991.452 552.96 992.902 552.96C995.033 552.96 996.744 553.538 998.036 554.694C999.328 555.85 999.997 557.425 1000.04 559.42H997.356C997.311 558.128 996.892 557.131 996.098 556.428C995.328 555.725 994.262 555.374 992.902 555.374C991.52 555.374 990.42 555.782 989.604 556.598C988.788 557.391 988.38 558.525 988.38 559.998V565.302C988.38 566.753 988.788 567.886 989.604 568.702C990.42 569.518 991.52 569.926 992.902 569.926C994.262 569.926 995.328 569.575 996.098 568.872C996.892 568.147 997.311 567.149 997.356 565.88H1000.04C999.997 567.875 999.328 569.45 998.036 570.606C996.744 571.762 995.033 572.34 992.902 572.34ZM1015.91 572C1014.34 572 1013.13 571.592 1012.27 570.776C1011.41 569.937 1010.98 568.759 1010.98 567.24V555.748H1005.67V553.3H1010.98V548.03H1013.7V553.3H1021.21V555.748H1013.7V567.24C1013.7 568.781 1014.43 569.552 1015.91 569.552H1020.87V572H1015.91ZM1034.9 572.34C1032.79 572.34 1031.1 571.705 1029.83 570.436C1028.59 569.167 1027.96 567.444 1027.96 565.268V553.3H1030.65V565.268C1030.65 566.741 1031.02 567.897 1031.77 568.736C1032.54 569.552 1033.59 569.96 1034.9 569.96C1036.24 569.96 1037.29 569.552 1038.06 568.736C1038.83 567.897 1039.22 566.741 1039.22 565.268V553.3H1041.9V565.268C1041.9 567.444 1041.27 569.167 1040 570.436C1038.73 571.705 1037.03 572.34 1034.9 572.34ZM1049.71 572V553.3H1052.36V556.768H1053.01L1052.06 558.91C1052.08 557.006 1052.54 555.544 1053.45 554.524C1054.36 553.481 1055.66 552.96 1057.36 552.96C1059.33 552.96 1060.9 553.583 1062.05 554.83C1063.23 556.054 1063.82 557.709 1063.82 559.794V560.916H1061.07V559.998C1061.07 558.479 1060.69 557.312 1059.94 556.496C1059.2 555.657 1058.13 555.238 1056.75 555.238C1055.41 555.238 1054.36 555.657 1053.59 556.496C1052.82 557.335 1052.43 558.502 1052.43 559.998V572H1049.71ZM1077.07 572.34C1075.62 572.34 1074.36 572.057 1073.29 571.49C1072.23 570.901 1071.4 570.073 1070.81 569.008C1070.22 567.943 1069.93 566.707 1069.93 565.302V559.998C1069.93 558.57 1070.22 557.335 1070.81 556.292C1071.4 555.227 1072.23 554.411 1073.29 553.844C1074.36 553.255 1075.62 552.96 1077.07 552.96C1078.52 552.96 1079.78 553.255 1080.84 553.844C1081.91 554.411 1082.73 555.227 1083.32 556.292C1083.91 557.335 1084.21 558.57 1084.21 559.998V563.296H1072.58V565.302C1072.58 566.821 1072.96 567.999 1073.74 568.838C1074.53 569.654 1075.64 570.062 1077.07 570.062C1078.27 570.062 1079.24 569.824 1079.99 569.348C1080.76 568.872 1081.25 568.181 1081.45 567.274H1084.14C1083.89 568.838 1083.13 570.073 1081.86 570.98C1080.59 571.887 1078.99 572.34 1077.07 572.34ZM1081.56 561.494V559.998C1081.56 558.479 1081.17 557.312 1080.4 556.496C1079.63 555.657 1078.52 555.238 1077.07 555.238C1075.64 555.238 1074.53 555.657 1073.74 556.496C1072.96 557.312 1072.58 558.479 1072.58 559.998V561.188H1081.83L1081.56 561.494ZM1121.24 572C1119.68 572 1118.46 571.592 1117.6 570.776C1116.74 569.937 1116.31 568.759 1116.31 567.24V555.748H1111.01V553.3H1116.31V548.03H1119.03V553.3H1126.54V555.748H1119.03V567.24C1119.03 568.781 1119.77 569.552 1121.24 569.552H1126.2V572H1121.24ZM1133.37 572V547.18H1136.05V553.028V556.632H1136.73L1135.98 557.72C1135.98 556.224 1136.44 555.057 1137.34 554.218C1138.27 553.379 1139.53 552.96 1141.12 552.96C1142.98 552.96 1144.46 553.549 1145.57 554.728C1146.68 555.884 1147.24 557.459 1147.24 559.454V572H1144.55V559.76C1144.55 558.332 1144.18 557.221 1143.43 556.428C1142.68 555.635 1141.66 555.238 1140.37 555.238C1139.03 555.238 1137.98 555.657 1137.21 556.496C1136.44 557.335 1136.05 558.502 1136.05 559.998V572H1133.37ZM1159.87 572.34C1157.9 572.34 1156.35 571.841 1155.21 570.844C1154.08 569.824 1153.51 568.453 1153.51 566.73C1153.51 565.03 1154.07 563.693 1155.18 562.718C1156.29 561.721 1157.79 561.222 1159.67 561.222H1165.62V559.25C1165.62 558.003 1165.26 557.04 1164.53 556.36C1163.8 555.68 1162.77 555.34 1161.44 555.34C1160.26 555.34 1159.27 555.601 1158.48 556.122C1157.71 556.643 1157.27 557.346 1157.15 558.23H1154.43C1154.66 556.621 1155.41 555.34 1156.68 554.388C1157.97 553.436 1159.58 552.96 1161.5 552.96C1163.59 552.96 1165.24 553.527 1166.47 554.66C1167.69 555.771 1168.3 557.278 1168.3 559.182V572H1165.65V568.362H1165.21L1165.72 567.818C1165.72 569.201 1165.19 570.3 1164.12 571.116C1163.06 571.932 1161.64 572.34 1159.87 572.34ZM1160.52 570.164C1162.01 570.164 1163.24 569.79 1164.19 569.042C1165.14 568.294 1165.62 567.319 1165.62 566.118V563.296H1159.7C1158.64 563.296 1157.79 563.591 1157.15 564.18C1156.52 564.769 1156.2 565.574 1156.2 566.594C1156.2 567.682 1156.59 568.555 1157.36 569.212C1158.13 569.847 1159.18 570.164 1160.52 570.164ZM1184.44 572C1182.88 572 1181.66 571.592 1180.8 570.776C1179.94 569.937 1179.51 568.759 1179.51 567.24V555.748H1174.21V553.3H1179.51V548.03H1182.23V553.3H1189.74V555.748H1182.23V567.24C1182.23 568.781 1182.97 569.552 1184.44 569.552H1189.4V572H1184.44ZM1217.63 572V547.18H1220.32V553.028V556.632H1221L1220.25 557.72C1220.25 556.224 1220.7 555.057 1221.61 554.218C1222.54 553.379 1223.8 552.96 1225.38 552.96C1227.24 552.96 1228.73 553.549 1229.84 554.728C1230.95 555.884 1231.5 557.459 1231.5 559.454V572H1228.82V559.76C1228.82 558.332 1228.44 557.221 1227.7 556.428C1226.95 555.635 1225.93 555.238 1224.64 555.238C1223.3 555.238 1222.25 555.657 1221.47 556.496C1220.7 557.335 1220.32 558.502 1220.32 559.998V572H1217.63ZM1245.6 572.306C1244.15 572.306 1242.89 572.023 1241.83 571.456C1240.76 570.889 1239.93 570.073 1239.35 569.008C1238.76 567.943 1238.46 566.685 1238.46 565.234V560.066C1238.46 558.593 1238.76 557.335 1239.35 556.292C1239.93 555.227 1240.76 554.411 1241.83 553.844C1242.89 553.277 1244.15 552.994 1245.6 552.994C1247.05 552.994 1248.31 553.277 1249.38 553.844C1250.44 554.411 1251.27 555.227 1251.86 556.292C1252.45 557.335 1252.74 558.581 1252.74 560.032V565.234C1252.74 566.685 1252.45 567.943 1251.86 569.008C1251.27 570.073 1250.44 570.889 1249.38 571.456C1248.31 572.023 1247.05 572.306 1245.6 572.306ZM1245.6 569.892C1247.01 569.892 1248.09 569.495 1248.87 568.702C1249.64 567.909 1250.02 566.753 1250.02 565.234V560.066C1250.02 558.547 1249.62 557.391 1248.83 556.598C1248.06 555.805 1246.98 555.408 1245.6 555.408C1244.22 555.408 1243.13 555.805 1242.34 556.598C1241.57 557.391 1241.18 558.547 1241.18 560.066V565.234C1241.18 566.753 1241.57 567.909 1242.34 568.702C1243.13 569.495 1244.22 569.892 1245.6 569.892ZM1269.12 572C1268.05 572 1267.12 571.796 1266.33 571.388C1265.56 570.98 1264.96 570.391 1264.53 569.62C1264.1 568.849 1263.88 567.943 1263.88 566.9V549.628H1257.66V547.18H1266.57V566.9C1266.57 567.739 1266.79 568.396 1267.25 568.872C1267.7 569.325 1268.32 569.552 1269.12 569.552H1275.07V572H1269.12ZM1286.82 572.34C1284.96 572.34 1283.45 571.717 1282.29 570.47C1281.16 569.223 1280.59 567.546 1280.59 565.438V559.896C1280.59 557.765 1281.16 556.077 1282.29 554.83C1283.43 553.583 1284.94 552.96 1286.82 552.96C1288.38 552.96 1289.64 553.391 1290.59 554.252C1291.57 555.113 1292.05 556.269 1292.05 557.72L1291.34 556.598H1291.98L1291.95 552.518V547.18H1294.64V572H1291.95V568.702H1291.24L1292.05 567.58C1292.05 569.053 1291.57 570.221 1290.59 571.082C1289.64 571.921 1288.38 572.34 1286.82 572.34ZM1287.67 569.994C1289 569.994 1290.05 569.586 1290.79 568.77C1291.57 567.931 1291.95 566.775 1291.95 565.302V559.998C1291.95 558.525 1291.57 557.38 1290.79 556.564C1290.05 555.725 1289 555.306 1287.67 555.306C1286.31 555.306 1285.24 555.714 1284.47 556.53C1283.7 557.346 1283.31 558.502 1283.31 559.998V565.302C1283.31 566.798 1283.7 567.954 1284.47 568.77C1285.24 569.586 1286.31 569.994 1287.67 569.994ZM1308.12 572.306C1306.9 572.306 1305.82 572.102 1304.89 571.694C1303.96 571.286 1303.23 570.719 1302.68 569.994C1302.14 569.246 1301.81 568.385 1301.7 567.41H1304.38C1304.54 568.158 1304.94 568.759 1305.57 569.212C1306.23 569.665 1307.08 569.892 1308.12 569.892H1309.79C1310.99 569.892 1311.9 569.631 1312.51 569.11C1313.14 568.566 1313.46 567.852 1313.46 566.968C1313.46 566.129 1313.19 565.449 1312.64 564.928C1312.1 564.407 1311.32 564.067 1310.3 563.908L1307.48 563.466C1305.71 563.171 1304.37 562.605 1303.46 561.766C1302.58 560.927 1302.14 559.749 1302.14 558.23C1302.14 556.575 1302.67 555.295 1303.74 554.388C1304.82 553.459 1306.39 552.994 1308.43 552.994H1309.75C1311.52 552.994 1312.94 553.413 1314 554.252C1315.09 555.091 1315.75 556.224 1315.98 557.652H1313.26C1313.12 556.972 1312.75 556.428 1312.13 556.02C1311.54 555.612 1310.75 555.408 1309.75 555.408H1308.43C1307.23 555.408 1306.33 555.657 1305.74 556.156C1305.15 556.632 1304.86 557.323 1304.86 558.23C1304.86 559.046 1305.11 559.669 1305.61 560.1C1306.1 560.508 1306.86 560.791 1307.88 560.95L1310.67 561.392C1312.53 561.687 1313.91 562.276 1314.82 563.16C1315.73 564.021 1316.18 565.234 1316.18 566.798C1316.18 568.498 1315.64 569.847 1314.55 570.844C1313.46 571.819 1311.87 572.306 1309.79 572.306H1308.12ZM1345.09 572L1342.06 553.3H1344.47L1346.48 566.73C1346.55 567.229 1346.62 567.784 1346.68 568.396C1346.78 569.008 1346.84 569.518 1346.89 569.926C1346.93 569.518 1347.01 569.008 1347.13 568.396C1347.24 567.784 1347.33 567.229 1347.4 566.73L1349.64 553.3H1352.23L1354.5 566.73C1354.57 567.229 1354.65 567.784 1354.74 568.396C1354.86 569.008 1354.94 569.518 1354.98 569.926C1355.03 569.518 1355.09 569.008 1355.18 568.396C1355.3 567.784 1355.39 567.229 1355.46 566.73L1357.5 553.3H1359.81L1356.65 572H1353.59L1351.51 558.978C1351.42 558.343 1351.31 557.697 1351.17 557.04C1351.06 556.36 1350.98 555.827 1350.93 555.442C1350.87 555.827 1350.78 556.36 1350.66 557.04C1350.57 557.697 1350.47 558.343 1350.36 558.978L1348.18 572H1345.09ZM1365.1 572V547.18H1367.79V553.028V556.632H1368.47L1367.72 557.72C1367.72 556.224 1368.17 555.057 1369.08 554.218C1370.01 553.379 1371.26 552.96 1372.85 552.96C1374.71 552.96 1376.19 553.549 1377.31 554.728C1378.42 555.884 1378.97 557.459 1378.97 559.454V572H1376.29V559.76C1376.29 558.332 1375.91 557.221 1375.16 556.428C1374.42 555.635 1373.4 555.238 1372.1 555.238C1370.77 555.238 1369.71 555.657 1368.94 556.496C1368.17 557.335 1367.79 558.502 1367.79 559.998V572H1365.1ZM1393.07 572.34C1391.62 572.34 1390.36 572.057 1389.29 571.49C1388.23 570.901 1387.4 570.073 1386.81 569.008C1386.22 567.943 1385.93 566.707 1385.93 565.302V559.998C1385.93 558.57 1386.22 557.335 1386.81 556.292C1387.4 555.227 1388.23 554.411 1389.29 553.844C1390.36 553.255 1391.62 552.96 1393.07 552.96C1394.52 552.96 1395.78 553.255 1396.84 553.844C1397.91 554.411 1398.73 555.227 1399.32 556.292C1399.91 557.335 1400.21 558.57 1400.21 559.998V563.296H1388.58V565.302C1388.58 566.821 1388.97 567.999 1389.74 568.838C1390.53 569.654 1391.64 570.062 1393.07 570.062C1394.27 570.062 1395.24 569.824 1395.99 569.348C1396.76 568.872 1397.25 568.181 1397.45 567.274H1400.14C1399.89 568.838 1399.13 570.073 1397.86 570.98C1396.59 571.887 1394.99 572.34 1393.07 572.34ZM1397.56 561.494V559.998C1397.56 558.479 1397.17 557.312 1396.4 556.496C1395.63 555.657 1394.52 555.238 1393.07 555.238C1391.64 555.238 1390.53 555.657 1389.74 556.496C1388.97 557.312 1388.58 558.479 1388.58 559.998V561.188H1397.83L1397.56 561.494ZM1407.23 572V553.3H1409.92V556.768H1410.6L1409.85 557.754C1409.85 556.258 1410.3 555.091 1411.21 554.252C1412.14 553.391 1413.4 552.96 1414.98 552.96C1416.84 552.96 1418.33 553.549 1419.44 554.728C1420.55 555.884 1421.1 557.459 1421.1 559.454V572H1418.42V559.76C1418.42 558.332 1418.04 557.233 1417.3 556.462C1416.55 555.691 1415.53 555.306 1414.24 555.306C1412.9 555.306 1411.85 555.714 1411.07 556.53C1410.3 557.346 1409.92 558.502 1409.92 559.998V572H1407.23ZM1452.32 578.12L1455.08 570.81L1448.14 553.3H1451.13L1455.55 564.962C1455.74 565.415 1455.91 565.925 1456.06 566.492C1456.25 567.036 1456.38 567.489 1456.47 567.852C1456.59 567.489 1456.72 567.025 1456.88 566.458C1457.04 565.891 1457.2 565.381 1457.36 564.928L1461.5 553.3H1464.39L1455.18 578.12H1452.32ZM1477.34 572.306C1475.88 572.306 1474.63 572.023 1473.56 571.456C1472.5 570.889 1471.67 570.073 1471.08 569.008C1470.49 567.943 1470.2 566.685 1470.2 565.234V560.066C1470.2 558.593 1470.49 557.335 1471.08 556.292C1471.67 555.227 1472.5 554.411 1473.56 553.844C1474.63 553.277 1475.88 552.994 1477.34 552.994C1478.79 552.994 1480.04 553.277 1481.11 553.844C1482.17 554.411 1483 555.227 1483.59 556.292C1484.18 557.335 1484.48 558.581 1484.48 560.032V565.234C1484.48 566.685 1484.18 567.943 1483.59 569.008C1483 570.073 1482.17 570.889 1481.11 571.456C1480.04 572.023 1478.79 572.306 1477.34 572.306ZM1477.34 569.892C1478.74 569.892 1479.83 569.495 1480.6 568.702C1481.37 567.909 1481.76 566.753 1481.76 565.234V560.066C1481.76 558.547 1481.36 557.391 1480.57 556.598C1479.79 555.805 1478.72 555.408 1477.34 555.408C1475.95 555.408 1474.86 555.805 1474.07 556.598C1473.3 557.391 1472.92 558.547 1472.92 560.066V565.234C1472.92 566.753 1473.3 567.909 1474.07 568.702C1474.86 569.495 1475.95 569.892 1477.34 569.892ZM1498.37 572.34C1496.26 572.34 1494.57 571.705 1493.3 570.436C1492.06 569.167 1491.43 567.444 1491.43 565.268V553.3H1494.12V565.268C1494.12 566.741 1494.49 567.897 1495.24 568.736C1496.01 569.552 1497.05 569.96 1498.37 569.96C1499.71 569.96 1500.76 569.552 1501.53 568.736C1502.3 567.897 1502.69 566.741 1502.69 565.268V553.3H1505.37V565.268C1505.37 567.444 1504.74 569.167 1503.47 570.436C1502.2 571.705 1500.5 572.34 1498.37 572.34ZM1539.62 572.34C1537.76 572.34 1536.25 571.717 1535.1 570.47C1533.96 569.223 1533.4 567.546 1533.4 565.438V559.896C1533.4 557.765 1533.96 556.077 1535.1 554.83C1536.23 553.583 1537.74 552.96 1539.62 552.96C1541.18 552.96 1542.44 553.391 1543.39 554.252C1544.37 555.113 1544.85 556.269 1544.85 557.72L1544.14 556.598H1544.79L1544.75 552.518V547.18H1547.44V572H1544.75V568.702H1544.04L1544.85 567.58C1544.85 569.053 1544.37 570.221 1543.39 571.082C1542.44 571.921 1541.18 572.34 1539.62 572.34ZM1540.47 569.994C1541.8 569.994 1542.85 569.586 1543.6 568.77C1544.37 567.931 1544.75 566.775 1544.75 565.302V559.998C1544.75 558.525 1544.37 557.38 1543.6 556.564C1542.85 555.725 1541.8 555.306 1540.47 555.306C1539.11 555.306 1538.04 555.714 1537.27 556.53C1536.5 557.346 1536.12 558.502 1536.12 559.998V565.302C1536.12 566.798 1536.5 567.954 1537.27 568.77C1538.04 569.586 1539.11 569.994 1540.47 569.994ZM1561.6 572.306C1560.15 572.306 1558.89 572.023 1557.83 571.456C1556.76 570.889 1555.94 570.073 1555.35 569.008C1554.76 567.943 1554.46 566.685 1554.46 565.234V560.066C1554.46 558.593 1554.76 557.335 1555.35 556.292C1555.94 555.227 1556.76 554.411 1557.83 553.844C1558.89 553.277 1560.15 552.994 1561.6 552.994C1563.05 552.994 1564.31 553.277 1565.38 553.844C1566.44 554.411 1567.27 555.227 1567.86 556.292C1568.45 557.335 1568.74 558.581 1568.74 560.032V565.234C1568.74 566.685 1568.45 567.943 1567.86 569.008C1567.27 570.073 1566.44 570.889 1565.38 571.456C1564.31 572.023 1563.05 572.306 1561.6 572.306ZM1561.6 569.892C1563.01 569.892 1564.1 569.495 1564.87 568.702C1565.64 567.909 1566.02 566.753 1566.02 565.234V560.066C1566.02 558.547 1565.63 557.391 1564.83 556.598C1564.06 555.805 1562.98 555.408 1561.6 555.408C1560.22 555.408 1559.13 555.805 1558.34 556.598C1557.57 557.391 1557.18 558.547 1557.18 560.066V565.234C1557.18 566.753 1557.57 567.909 1558.34 568.702C1559.13 569.495 1560.22 569.892 1561.6 569.892ZM1582.67 572.34C1581.83 572.34 1581.16 572.102 1580.66 571.626C1580.19 571.127 1579.95 570.47 1579.95 569.654C1579.95 568.793 1580.19 568.113 1580.66 567.614C1581.16 567.115 1581.83 566.866 1582.67 566.866C1583.51 566.866 1584.16 567.115 1584.64 567.614C1585.14 568.113 1585.39 568.793 1585.39 569.654C1585.39 570.47 1585.14 571.127 1584.64 571.626C1584.16 572.102 1583.51 572.34 1582.67 572.34Z" fill="#F1EEE6" fill-opacity="0.55"/>
</svg>
